HIERARCHY
ROOT Storm:Solving:Root
{
	OFFSET 0.000000 0.000000 0.000000
	CHANNELS 6 Xposition Yposition Zposition Xrotation Yrotation Zrotation
	JOINT Storm:Solving:L_Clav
	{
		OFFSET 0.000000 0.000000 0.000000
		CHANNELS 6 Xposition Yposition Zposition Xrotation Yrotation Zrotation
		JOINT Storm:Solving:L_Scapula_Joint
		{
			OFFSET 4.000000 0.000000 0.000000
			CHANNELS 6 Xposition Yposition Zposition Xrotation Yrotation Zrotation
			JOINT Storm:Solving:L_Shoulder_Joint
			{
				OFFSET 4.002680 -10.770058 -11.084216
				CHANNELS 6 Xposition Yposition Zposition Xrotation Yrotation Zrotation
				JOINT Storm:Solving:L_Elbow_Joint
				{
					OFFSET 2.147804 8.035205 -15.161017
					CHANNELS 6 Xposition Yposition Zposition Xrotation Yrotation Zrotation
					JOINT Storm:Solving:L_Wrist_Joint
					{
						OFFSET -2.240269 9.040073 -20.029085
						CHANNELS 6 Xposition Yposition Zposition Xrotation Yrotation Zrotation
						JOINT Storm:Solving:L_Paw_Joint
						{
							OFFSET 0.706234 -1.834930 -5.721245
							CHANNELS 6 Xposition Yposition Zposition Xrotation Yrotation Zrotation
							End Site
							{
								OFFSET 1.343818 -4.244948 -3.510090
							}
						}
					}
				}
			}
		}
	}
	JOINT Storm:Solving:R_Clav
	{
		OFFSET 0.000000 0.000000 0.000000
		CHANNELS 6 Xposition Yposition Zposition Xrotation Yrotation Zrotation
		JOINT Storm:Solving:R_Scapula_Joint
		{
			OFFSET -4.000000 -0.000001 0.000000
			CHANNELS 6 Xposition Yposition Zposition Xrotation Yrotation Zrotation
			JOINT Storm:Solving:NewBone_3
			{
				OFFSET -4.614829 -9.889530 -11.686038
				CHANNELS 6 Xposition Yposition Zposition Xrotation Yrotation Zrotation
				JOINT Storm:Solving:R_Elbow_Joint
				{
					OFFSET -0.160743 5.491839 -16.404385
					CHANNELS 6 Xposition Yposition Zposition Xrotation Yrotation Zrotation
					JOINT Storm:Solving:R_Wrist_Joint
					{
						OFFSET 2.412016 -1.190895 -21.935680
						CHANNELS 6 Xposition Yposition Zposition Xrotation Yrotation Zrotation
						JOINT Storm:Solving:R_Paw_Joint
						{
							OFFSET -0.535018 -3.806499 -3.351765
							CHANNELS 6 Xposition Yposition Zposition Xrotation Yrotation Zrotation
							End Site
							{
								OFFSET -0.877549 -5.252174 -2.975662
							}
						}
					}
				}
			}
		}
	}
	JOINT Storm:Solving:Root_To_Spine_Dummy
	{
		OFFSET 0.000000 0.000000 0.000000
		CHANNELS 6 Xposition Yposition Zposition Xrotation Yrotation Zrotation
		JOINT Storm:Solving:Spine1
		{
			OFFSET 0.000000 3.827275 -0.000000
			CHANNELS 6 Xposition Yposition Zposition Xrotation Yrotation Zrotation
			JOINT Storm:Solving:Spine2
			{
				OFFSET 0.000001 16.939260 -0.000001
				CHANNELS 6 Xposition Yposition Zposition Xrotation Yrotation Zrotation
				JOINT Storm:Solving:Spine3
				{
					OFFSET 0.000002 14.393892 -0.000001
					CHANNELS 6 Xposition Yposition Zposition Xrotation Yrotation Zrotation
					JOINT Storm:Solving:Pelvis_Root
					{
						OFFSET 0.000002 14.393890 -0.000001
						CHANNELS 6 Xposition Yposition Zposition Xrotation Yrotation Zrotation
						JOINT Storm:Solving:L_Pelvis
						{
							OFFSET 0.000000 0.000000 0.000000
							CHANNELS 6 Xposition Yposition Zposition Xrotation Yrotation Zrotation
							JOINT Storm:Solving:LFemur_Joint
							{
								OFFSET 8.318080 6.728058 -6.780919
								CHANNELS 6 Xposition Yposition Zposition Xrotation Yrotation Zrotation
								JOINT Storm:Solving:LTibia_Joint
								{
									OFFSET 4.762119 -12.109562 -18.232958
									CHANNELS 6 Xposition Yposition Zposition Xrotation Yrotation Zrotation
									JOINT Storm:Solving:LAnkle_Joint
									{
										OFFSET 1.748854 12.690498 -18.426313
										CHANNELS 6 Xposition Yposition Zposition Xrotation Yrotation Zrotation
										JOINT Storm:Solving:LFoot_Joint
										{
											OFFSET 2.893215 -3.420891 -10.324425
											CHANNELS 6 Xposition Yposition Zposition Xrotation Yrotation Zrotation
											End Site
											{
												OFFSET 3.317142 -6.178677 -1.153622
											}
										}
									}
								}
							}
						}
						JOINT Storm:Solving:R_Pelvis
						{
							OFFSET 0.000000 0.000000 0.000000
							CHANNELS 6 Xposition Yposition Zposition Xrotation Yrotation Zrotation
							JOINT Storm:Solving:RFemur_Joint
							{
								OFFSET -8.082922 6.553699 -7.104603
								CHANNELS 6 Xposition Yposition Zposition Xrotation Yrotation Zrotation
								JOINT Storm:Solving:RTibia_Joint
								{
									OFFSET -3.034004 -11.551189 -18.950596
									CHANNELS 6 Xposition Yposition Zposition Xrotation Yrotation Zrotation
									JOINT Storm:Solving:RAnkle_Joint
									{
										OFFSET 0.163292 10.210636 -19.936810
										CHANNELS 6 Xposition Yposition Zposition Xrotation Yrotation Zrotation
										JOINT Storm:Solving:RFoot_Joint
										{
											OFFSET -0.793680 -0.101715 -9.967937
											CHANNELS 6 Xposition Yposition Zposition Xrotation Yrotation Zrotation
											End Site
											{
												OFFSET -4.434014 -4.525612 -1.490955
											}
										}
									}
								}
							}
						}
					}
				}
			}
		}
	}
	JOINT Storm:Solving:Root_To_Neck
	{
		OFFSET 0.000000 0.000000 0.000000
		CHANNELS 6 Xposition Yposition Zposition Xrotation Yrotation Zrotation
		JOINT Storm:Solving:Neck1
		{
			OFFSET 0.000000 -5.729186 4.185542
			CHANNELS 6 Xposition Yposition Zposition Xrotation Yrotation Zrotation
			JOINT Storm:Solving:Neck2
			{
				OFFSET 2.125778 -7.100437 5.862305
				CHANNELS 6 Xposition Yposition Zposition Xrotation Yrotation Zrotation
				JOINT Storm:Solving:Head
				{
					OFFSET -4.381103 -1.801980 5.689912
					CHANNELS 6 Xposition Yposition Zposition Xrotation Yrotation Zrotation
					JOINT Storm:Solving:Head_End
					{
						OFFSET -9.753127 -15.562062 2.579649
						CHANNELS 6 Xposition Yposition Zposition Xrotation Yrotation Zrotation
						End Site
						{
							OFFSET -4.085258 5.421284 17.259089
						}
					}
				}
			}
		}
	}
	JOINT Storm:Solving:R_Clav_1
	{
		OFFSET 0.000000 0.000000 0.000000
		CHANNELS 6 Xposition Yposition Zposition Xrotation Yrotation Zrotation
		End Site
		{
			OFFSET 0.000000 0.000000 0.010000
		}
	}
}
MOTION
Frames: 4
Frame Time: 0.041667
13.462576 116.463562 55.092545 17.240905 -1.506362 14.786830 -0.000004 -0.000006 -0.000004 -4.008276 -19.396762 -1.333116 3.999996 -0.000013 -0.000007 -5.114170 31.042452 7.302962 4.002691 -10.770056 -11.084208 10.030795 5.419617 -28.059380 2.147815 8.035194 -15.161014 -84.304410 -23.477903 1.600665 -2.240278 9.040086 -20.029091 74.752739 -2.168403 -18.410199 0.706242 -1.834921 -5.721237 28.839118 8.852369 -0.851210 -0.000004 -0.000006 -0.000004 2.502412 16.354842 -0.705053 -3.999997 -0.000001 -0.000011 2.305850 -8.596073 0.421462 -4.614828 -9.889516 -11.686040 3.683796 -5.858864 -0.320661 -0.160744 5.491833 -16.404387 -14.695529 -0.527658 -1.651699 2.412014 -1.190875 -21.935692 -11.566336 4.979588 -4.028759 -0.535026 -3.806512 -3.351768 -2.169650 0.487987 -0.205055 -0.000004 -0.000006 -0.000004 0.000001 0.000001 0.000000 0.000001 3.827282 -0.000002 -15.653170 4.939713 -6.262942 0.000000 16.939249 0.000000 -4.253713 -2.479576 0.167835 0.000000 14.393847 -0.000011 3.540344 13.261884 -0.593544 0.000000 14.393894 0.000003 12.171606 -3.032779 -4.356541 -0.000002 -0.000000 -0.000002 -0.000004 0.000009 -0.000001 8.318075 6.728034 -6.780922 -15.526543 9.925312 13.253092 4.762110 -12.109534 -18.232956 -10.164865 -1.633594 -2.379996 1.748847 12.690531 -18.426310 -17.304320 -1.648381 -3.448833 2.893204 -3.420876 -10.324404 14.017018 7.365068 0.634609 0.000000 -0.000004 0.000003 0.000008 -0.000001 0.000007 -8.082945 6.553699 -7.104605 14.460404 -7.823468 14.277220 -3.034005 -11.551191 -18.950592 -4.482411 0.738713 0.378110 0.163312 10.210633 -19.936832 11.144067 -13.870861 1.014423 -0.793689 -0.101700 -9.967918 -1.479575 1.412591 0.121515 -0.000004 -0.000006 -0.000004 0.000003 -0.000000 -0.000000 -0.000006 -5.729178 4.185556 0.606433 -3.942441 -5.216286 2.125778 -7.100441 5.862304 47.387426 32.831203 15.415751 -4.381088 -1.801980 5.689909 -19.240911 -5.767817 -2.971754 -9.753133 -15.562067 2.579652 0.000002 0.000000 0.000004 -0.000004 -0.000006 -0.000004 0.000001 0.000000 0.000002 
13.462576 116.463562 55.092545 17.240905 -1.506362 14.786830 -0.000004 -0.000006 -0.000004 -4.008276 -19.396762 -1.333116 3.999996 -0.000013 -0.000007 -5.114170 31.042452 7.302962 4.002691 -10.770056 -11.084208 10.030795 5.419617 -28.059380 2.147815 8.035194 -15.161014 -84.304410 -23.477903 1.600665 -2.240278 9.040086 -20.029091 74.752739 -2.168403 -18.410199 0.706242 -1.834921 -5.721237 28.839118 8.852369 -0.851210 -0.000004 -0.000006 -0.000004 2.502412 16.354842 -0.705053 -3.999997 -0.000001 -0.000011 2.305850 -8.596073 0.421462 -4.614828 -9.889516 -11.686040 3.683796 -5.858864 -0.320661 -0.160744 5.491833 -16.404387 -14.695529 -0.527658 -1.651699 2.412014 -1.190875 -21.935692 -11.566336 4.979588 -4.028759 -0.535026 -3.806512 -3.351768 -2.169650 0.487987 -0.205055 -0.000004 -0.000006 -0.000004 0.000001 0.000001 0.000000 0.000001 3.827282 -0.000002 -15.653170 4.939713 -6.262942 0.000000 16.939249 0.000000 -4.253713 -2.479576 0.167835 0.000000 14.393847 -0.000011 3.540344 13.261884 -0.593544 0.000000 14.393894 0.000003 12.171606 -3.032779 -4.356541 -0.000002 -0.000000 -0.000002 -0.000004 0.000009 -0.000001 8.318075 6.728034 -6.780922 -15.526543 9.925312 13.253092 4.762110 -12.109534 -18.232956 -10.164865 -1.633594 -2.379996 1.748847 12.690531 -18.426310 -17.304320 -1.648381 -3.448833 2.893204 -3.420876 -10.324404 14.017018 7.365068 0.634609 0.000000 -0.000004 0.000003 0.000008 -0.000001 0.000007 -8.082945 6.553699 -7.104605 14.460404 -7.823468 14.277220 -3.034005 -11.551191 -18.950592 -4.482411 0.738713 0.378110 0.163312 10.210633 -19.936832 11.144067 -13.870861 1.014423 -0.793689 -0.101700 -9.967918 -1.479575 1.412591 0.121515 -0.000004 -0.000006 -0.000004 0.000003 -0.000000 -0.000000 -0.000006 -5.729178 4.185556 0.606433 -3.942441 -5.216286 2.125778 -7.100441 5.862304 47.387426 32.831203 15.415751 -4.381088 -1.801980 5.689909 -19.240911 -5.767817 -2.971754 -9.753133 -15.562067 2.579652 0.000002 0.000000 0.000004 -0.000004 -0.000006 -0.000004 0.000001 0.000000 0.000002 
13.456124 115.950096 55.079479 17.447787 -1.417283 14.518337 -0.000003 -0.000022 0.000001 -4.294213 -18.772742 -1.384271 3.999991 -0.000011 -0.000003 -5.332961 30.497857 7.231058 4.002672 -10.770062 -11.084202 7.490249 5.103683 -26.258503 2.147797 8.035200 -15.161004 -81.909350 -21.372823 3.428012 -2.240283 9.040077 -20.029102 68.761536 -0.894074 -19.007629 0.706229 -1.834928 -5.721236 28.279562 8.690046 -0.792667 -0.000003 -0.000022 0.000001 2.611888 16.262382 -0.731893 -4.000012 -0.000018 -0.000003 2.451314 -8.581309 0.519186 -4.614829 -9.889503 -11.686030 3.605473 -6.019061 -0.300653 -0.160746 5.491848 -16.404385 -14.593307 -0.525468 -1.639807 2.412020 -1.190904 -21.935694 -11.127231 4.881342 -3.835729 -0.535020 -3.806505 -3.351759 -3.114567 0.702990 -0.288597 -0.000003 -0.000022 0.000001 0.000003 -0.000000 -0.000001 -0.000005 3.827255 -0.000001 -15.855198 4.718739 -6.236153 0.000007 16.939260 -0.000007 -4.225511 -2.576520 0.301394 -0.000000 14.393885 -0.000008 3.581041 13.448352 -0.527280 -0.000004 14.393829 0.000000 12.324049 -3.184531 -4.085345 -0.000003 0.000008 0.000000 -0.000002 -0.000000 0.000001 8.318087 6.728058 -6.780932 -15.202830 10.274999 13.428834 4.762125 -12.109567 -18.232944 -10.405405 -1.666902 -2.439477 1.748848 12.690531 -18.426319 -17.325198 -1.339091 -3.470754 2.893217 -3.420859 -10.324406 13.753313 7.226258 0.639400 0.000001 0.000004 0.000004 0.000002 0.000005 0.000006 -8.082921 6.553712 -7.104622 14.220402 -7.708299 14.539832 -3.034008 -11.551201 -18.950590 -4.248318 0.700907 0.356954 0.163303 10.210626 -19.936813 11.477550 -13.301105 0.854367 -0.793692 -0.101743 -9.967965 0.307914 -0.294703 -0.020719 -0.000003 -0.000022 0.000001 0.000005 -0.000000 -0.000001 0.000002 -5.729206 4.185545 1.019306 -2.792536 -3.804496 2.125793 -7.100411 5.862304 45.446358 29.711518 17.445398 -4.381116 -1.801965 5.689919 -17.954373 -4.767324 -4.031246 -9.753125 -15.562057 2.579645 0.000002 0.000001 0.000005 -0.000003 -0.000022 0.000001 0.000001 -0.000000 -0.000001 
13.449989 115.432961 55.071964 17.654403 -1.377867 14.236058 -0.000002 0.000008 0.000001 -4.557209 -17.914826 -1.404492 3.999995 0.000005 -0.000006 -5.472909 29.766453 7.057606 4.002677 -10.770071 -11.084207 4.745070 4.773222 -24.169248 2.147816 8.035221 -15.161008 -79.167910 -18.967596 4.695475 -2.240268 9.040068 -20.029076 62.917770 0.496853 -20.002274 0.706227 -1.834927 -5.721235 27.388965 8.430302 -0.702755 -0.000002 0.000008 0.000001 2.708148 16.130545 -0.752914 -4.000004 -0.000010 0.000002 2.618511 -8.477969 0.713767 -4.614839 -9.889531 -11.686047 3.491246 -6.153012 -0.292847 -0.160745 5.491852 -16.404388 -14.423191 -0.521784 -1.620031 2.412015 -1.190895 -21.935682 -10.830555 4.804387 -3.671135 -0.535022 -3.806522 -3.351748 -3.848630 0.870987 -0.351067 -0.000002 0.000008 0.000001 0.000001 -0.000000 -0.000000 -0.000003 3.827281 0.000006 -16.043708 4.544624 -6.198533 0.000002 16.939262 -0.000007 -4.203854 -2.600205 0.436832 -0.000001 14.393900 -0.000005 3.557309 13.463227 -0.419658 0.000002 14.393902 -0.000003 12.531249 -3.223898 -3.764929 -0.000005 0.000011 -0.000012 -0.000001 -0.000004 0.000001 8.318096 6.728066 -6.780923 -14.853887 10.611668 13.467630 4.762115 -12.109545 -18.232943 -10.646640 -1.700056 -2.499254 1.748848 12.690527 -18.426310 -17.322478 -1.095181 -3.485338 2.893199 -3.420888 -10.324406 13.385623 7.032602 0.644997 -0.000002 0.000034 -0.000009 0.000002 0.000002 0.000004 -8.082913 6.553729 -7.104612 13.858624 -7.615439 14.652258 -3.034013 -11.551196 -18.950615 -3.707301 0.613187 0.308640 0.163288 10.210620 -19.936821 11.459421 -12.739225 0.718550 -0.793695 -0.101663 -9.967946 2.467735 -2.366038 -0.121626 -0.000002 0.000008 0.000001 0.000005 0.000002 0.000001 -0.000002 -5.729214 4.185558 1.366237 -1.711714 -2.536059 2.125790 -7.100430 5.862301 43.887664 27.084598 18.881377 -4.381106 -1.801994 5.689917 -16.992361 -4.073913 -4.747791 -9.753126 -15.562063 2.579640 0.000002 -0.000001 0.000002 -0.000002 0.000008 0.000001 -0.000001 0.000000 0.000001 
